<?xml version="1.0" encoding="UTF-8"?>
<svg width="151.05mm" height="26.25mm" version="1.1" viewBox="0 0 151.05 26.25" xmlns="http://www.w3.org/2000/svg">
 <defs>
  <filter id="a" x="0" y="0" width="1" height="1" color-interpolation-filters="sRGB">
   <feColorMatrix result="color1" type="hueRotate" values="180"/>
   <feColorMatrix result="color2" values="-1 0 0 0 1 0 -1 0 0 1 0 0 -1 0 1 -0.21 -0.72 -0.07 2 0 "/>
  </filter>
 </defs>
 <g transform="translate(15.1 -46.372)">
  <g transform="matrix(.5 0 0 .5 -84.157 17.785)" stroke-width="2">
   <g transform="translate(-138.94 -87.394)" filter="url(#a)" stroke-width="2">
    <circle cx="303.3" cy="170.82" r="26.25" stroke-linecap="square" stroke-opacity=".99608" stroke-width="2.1167"/>
   </g>
   <circle transform="translate(-138.94 -87.394)" cx="303.3" cy="170.82" r="25" fill="#fff" filter="url(#a)" stroke-linecap="square" stroke-opacity=".99608" stroke-width="2.1167"/>
   <circle transform="translate(-138.94 -87.394)" cx="303.3" cy="170.82" r="20" filter="url(#a)" stroke-linecap="square" stroke-opacity=".99608" stroke-width="2.1167"/>
   <path transform="matrix(1.089 0 0 1 -165.93 -87.394)" d="m300.8 173.71v18.008h5v-18.393l-5 0.38466z" fill="#fff" filter="url(#a)"/>
   <g transform="matrix(1.04 0 0 1.04 -6.5745 -4.3509)" stroke-width="1.9231">
    <g transform="translate(0 -.52917)" stroke-opacity=".99608" stroke-width="1.5264">
     <path d="m154.61 94.318 9.7858-16.949 9.7274 16.949h-19.513z"/>
     <path d="m157.92 85.556 6.4586-11.186 6.4201 11.186h-12.879z"/>
     <path d="m160.11 78.752s4.2627-7.383 4.2627-7.383 4.2372 7.383 4.2372 7.383h-8.4999z"/>
    </g>
   </g>
  </g>
  <g transform="translate(2.1167)" stroke="#fff" stroke-width=".8" aria-label="jevko.lua">
   <path d="m18.925 47.572c-1.2192 0-2.2352 1.016-2.2352 2.2352 0 1.2446 1.016 2.2606 2.2098 2.2606 1.2954 0 2.286-0.9906 2.286-2.2606 0-1.2192-1.016-2.2352-2.2606-2.2352zm2.159 6.7056-6.4262 0.1778v1.2954h0.8128c1.524 0.0254 1.6256 0.1524 1.6256 2.1844v9.8044c0 1.7018-0.4318 2.4892-1.3716 2.4892-0.3048 0-0.4826-0.0762-0.635-0.2794 0.5334-0.3556 0.7366-0.6858 0.7366-1.27 0-0.9906-0.6858-1.7018-1.651-1.7018-1.143 0-1.9812 0.8128-1.9812 1.905 0 1.4732 1.4732 2.54 3.556 2.54 1.9304 0 3.6576-0.9906 4.445-2.5654 0.6604-1.27 0.889-2.6924 0.889-5.334z"/>
   <path d="m36.934 60.5v-0.4064c0-3.7846-2.3368-6.1976-6.0706-6.1976-2.0574 0-3.7338 0.6604-5.0038 1.9558-1.143 1.1938-1.8288 2.8702-1.8288 4.5466 0 1.8288 0.7874 3.6322 2.0574 4.7244 1.1684 0.9906 2.8702 1.5494 4.8006 1.5494 2.9718 0 4.9276-1.3208 6.0452-4.0386l-1.2446-0.508c-1.016 1.9812-2.1336 2.8194-3.81 2.8194-1.1684 0-2.1844-0.5588-2.8194-1.524-0.4318-0.6858-0.6096-1.4732-0.635-2.921zm-8.4836-1.397c0-2.413 0.9652-3.8862 2.4892-3.8862 1.3208 0 2.0066 1.0668 2.0066 3.0734 0 0.6096-0.1778 0.8128-0.6858 0.8128z"/>
   <path d="m46.459 62.736-2.7178-5.9436c-0.127-0.2794-0.2032-0.508-0.2032-0.6604 0-0.4064 0.3556-0.5842 1.3208-0.5588v-1.2954h-7.1628v1.2954c0.9398 0.0254 1.1938 0.2286 1.7272 1.3208l4.6736 9.7536h2.159l3.9116-8.8392c0.7112-1.7272 1.2954-2.2606 2.413-2.2352v-1.2954h-5.7658v1.2954c1.397-0.0254 1.9558 0.254 1.9558 0.9906 0 0.3556-0.0508 0.508-0.4572 1.524z"/>
   <path d="m59.311 47.572-6.096 0.381v1.2954h0.4826c1.5494 0 1.651 0.127 1.6256 2.3622v12.395c-0.0254 0.3556-0.0508 0.508-0.1524 0.6604-0.1778 0.2286-0.6604 0.3302-1.778 0.3302h-0.1016v1.2954h7.747v-1.2954c-1.4224 0-1.7526-0.2032-1.7272-1.0922v-1.9812l1.1684-1.0414 2.3368 2.8448c0.2032 0.2286 0.3302 0.5334 0.3302 0.762 0 0.3556-0.3302 0.508-0.9906 0.508h-0.254v1.2954h7.7724v-1.2954c-0.889 0-1.0922-0.1524-2.2352-1.6002l-3.9878-5.0038 1.9558-1.6256c0.9906-0.8636 1.7526-1.1938 2.7432-1.1938h0.5842v-1.2954h-7.4676v1.2954h0.3048c0.9652 0 1.524 0.254 1.524 0.6858 0 0.3302-0.1778 0.6096-0.635 1.016l-3.1496 2.7686z"/>
   <path d="m77.091 53.896c-4.0386 0-7.0358 2.7432-7.0358 6.4262 0 3.683 2.921 6.35 6.9342 6.35s6.985-2.6924 6.985-6.3246c0-3.6068-3.0226-6.4516-6.8834-6.4516zm-0.0508 1.3208c0.889 0 1.7018 0.6096 2.032 1.4986 0.3048 0.8382 0.508 2.2606 0.508 3.6068 0 3.2258-0.9144 5.0292-2.5654 5.0292-1.7018 0-2.5654-1.7018-2.5654-5.0546 0-3.3782 0.8636-5.08 2.5908-5.08z"/>
   <path d="m88.394 61.897c-1.3208 0-2.3876 1.0668-2.3876 2.3876 0 1.2954 1.0668 2.3876 2.3622 2.3876 1.3462 0 2.413-1.0668 2.413-2.3876 0-1.3208-1.0668-2.3876-2.3876-2.3876z"/>
   <path d="m98.427 47.572-6.096 0.381v1.2954h0.4826c1.5494 0 1.651 0.127 1.6256 2.3622v12.395c-0.0254 0.3556-0.0508 0.508-0.1524 0.6604-0.1778 0.2286-0.6604 0.3302-1.778 0.3302h-0.1016v1.2954h7.9248v-1.2954h-0.1778c-1.524-0.0508-1.7272-0.1778-1.7272-1.0922v-1.27z"/>
   <path d="m115.7 54.277-6.0198 0.1778v1.2954h0.4064c1.5748 0.0254 1.651 0.127 1.6256 2.4638v2.032c0 1.27-0.1016 1.9558-0.4318 2.6162-0.4064 0.8636-1.2954 1.4478-2.2606 1.4478-1.27 0-1.8034-0.7874-1.8034-2.7178v-7.3152l-6.0198 0.1778v1.2954h0.4064c1.5748 0.0254 1.651 0.127 1.6256 2.4638v3.2258c0 1.8796 0.0508 2.3368 0.4064 3.048 0.6858 1.4224 2.0066 2.1844 3.7592 2.1844 1.8034 0 3.0226-0.6604 4.4958-2.4638v2.0828l5.9182-0.2794v-1.3716h-0.7112c-1.3208 0-1.4224-0.127-1.397-1.6764z"/>
   <path d="m131.37 58.214c0-1.651-0.3048-2.4384-1.1938-3.175-0.9398-0.7366-2.5146-1.143-4.5212-1.143-3.5052 0-5.7912 1.2954-5.7912 3.2766 0 1.0922 0.8636 1.905 2.0574 1.905s2.0828-0.7112 2.0828-1.651c0-0.3048-0.127-0.6604-0.3556-0.9652s-0.2286-0.3048-0.2286-0.4318c0-0.4318 0.8382-0.8128 1.8542-0.8128 1.5494 0 2.1082 0.635 2.1082 2.413v1.3208c-0.127 0.0254-0.635 0.1524-1.5748 0.3556-1.5748 0.3302-2.159 0.4826-3.2512 0.8636-2.3622 0.7874-3.3782 1.8542-3.3782 3.5306 0 1.8796 1.4224 2.9718 3.9116 2.9718 2.1844 0 3.5052-0.4826 4.8514-1.8034 0.4318 1.143 1.397 1.8034 2.6924 1.8034 1.4478 0 2.794-1.016 2.794-2.1082 0-0.254-0.127-0.4064-0.381-0.4064-0.1524 0-0.3048 0.0508-0.508 0.1778-0.2286 0.1524-0.3048 0.1778-0.4826 0.1778-0.5588 0-0.6858-0.3302-0.6858-1.8288zm-3.9878 2.1082v1.4224c0 1.9558-0.889 3.2004-2.3368 3.2004-0.9906 0-1.6256-0.6858-1.6256-1.7526 0-1.3716 0.7874-2.1336 2.6162-2.5654z"/>
  </g>
 </g>
</svg>
